<svg id="visual" viewBox="0 0 900 600" width="900" height="600" xmlns="http://www.w3.org/2000/svg" xmlns:xlink="http://www.w3.org/1999/xlink" version="1.1"><rect x="0" y="0" width="900" height="600" fill="#070021"></rect><defs><linearGradient id="grad1_0" x1="33.3%" y1="0%" x2="100%" y2="100%"><stop offset="20%" stop-color="#00d1ff" stop-opacity="1"></stop><stop offset="80%" stop-color="#00d1ff" stop-opacity="1"></stop></linearGradient></defs><defs><linearGradient id="grad1_1" x1="33.3%" y1="0%" x2="100%" y2="100%"><stop offset="20%" stop-color="#00d1ff" stop-opacity="1"></stop><stop offset="80%" stop-color="#13b0e1" stop-opacity="1"></stop></linearGradient></defs><defs><linearGradient id="grad1_2" x1="33.3%" y1="0%" x2="100%" y2="100%"><stop offset="20%" stop-color="#1e8fc2" stop-opacity="1"></stop><stop offset="80%" stop-color="#13b0e1" stop-opacity="1"></stop></linearGradient></defs><defs><linearGradient id="grad1_3" x1="33.3%" y1="0%" x2="100%" y2="100%"><stop offset="20%" stop-color="#1e8fc2" stop-opacity="1"></stop><stop offset="80%" stop-color="#2370a1" stop-opacity="1"></stop></linearGradient></defs><defs><linearGradient id="grad1_4" x1="33.3%" y1="0%" x2="100%" y2="100%"><stop offset="20%" stop-color="#22537f" stop-opacity="1"></stop><stop offset="80%" stop-color="#2370a1" stop-opacity="1"></stop></linearGradient></defs><defs><linearGradient id="grad1_5" x1="33.3%" y1="0%" x2="100%" y2="100%"><stop offset="20%" stop-color="#22537f" stop-opacity="1"></stop><stop offset="80%" stop-color="#1d385e" stop-opacity="1"></stop></linearGradient></defs><defs><linearGradient id="grad1_6" x1="33.3%" y1="0%" x2="100%" y2="100%"><stop offset="20%" stop-color="#131f3e" stop-opacity="1"></stop><stop offset="80%" stop-color="#1d385e" stop-opacity="1"></stop></linearGradient></defs><defs><linearGradient id="grad1_7" x1="33.3%" y1="0%" x2="100%" y2="100%"><stop offset="20%" stop-color="#131f3e" stop-opacity="1"></stop><stop offset="80%" stop-color="#070021" stop-opacity="1"></stop></linearGradient></defs><defs><linearGradient id="grad2_0" x1="0%" y1="0%" x2="66.7%" y2="100%"><stop offset="20%" stop-color="#00d1ff" stop-opacity="1"></stop><stop offset="80%" stop-color="#00d1ff" stop-opacity="1"></stop></linearGradient></defs><defs><linearGradient id="grad2_1" x1="0%" y1="0%" x2="66.7%" y2="100%"><stop offset="20%" stop-color="#13b0e1" stop-opacity="1"></stop><stop offset="80%" stop-color="#00d1ff" stop-opacity="1"></stop></linearGradient></defs><defs><linearGradient id="grad2_2" x1="0%" y1="0%" x2="66.7%" y2="100%"><stop offset="20%" stop-color="#13b0e1" stop-opacity="1"></stop><stop offset="80%" stop-color="#1e8fc2" stop-opacity="1"></stop></linearGradient></defs><defs><linearGradient id="grad2_3" x1="0%" y1="0%" x2="66.7%" y2="100%"><stop offset="20%" stop-color="#2370a1" stop-opacity="1"></stop><stop offset="80%" stop-color="#1e8fc2" stop-opacity="1"></stop></linearGradient></defs><defs><linearGradient id="grad2_4" x1="0%" y1="0%" x2="66.7%" y2="100%"><stop offset="20%" stop-color="#2370a1" stop-opacity="1"></stop><stop offset="80%" stop-color="#22537f" stop-opacity="1"></stop></linearGradient></defs><defs><linearGradient id="grad2_5" x1="0%" y1="0%" x2="66.7%" y2="100%"><stop offset="20%" stop-color="#1d385e" stop-opacity="1"></stop><stop offset="80%" stop-color="#22537f" stop-opacity="1"></stop></linearGradient></defs><defs><linearGradient id="grad2_6" x1="0%" y1="0%" x2="66.7%" y2="100%"><stop offset="20%" stop-color="#1d385e" stop-opacity="1"></stop><stop offset="80%" stop-color="#131f3e" stop-opacity="1"></stop></linearGradient></defs><defs><linearGradient id="grad2_7" x1="0%" y1="0%" x2="66.7%" y2="100%"><stop offset="20%" stop-color="#070021" stop-opacity="1"></stop><stop offset="80%" stop-color="#131f3e" stop-opacity="1"></stop></linearGradient></defs><g transform="translate(900, 0)"><path d="M0 351.5C-33.2 328.2 -66.5 304.9 -91.5 281.5C-116.5 258.2 -133.3 234.8 -161.1 221.7C-188.9 208.6 -227.7 205.8 -260.5 189.3C-293.3 172.7 -320.2 142.5 -334.3 108.6C-348.5 74.8 -350 37.4 -351.5 0L0 0Z" fill="#0d132f"></path><path d="M0 307.6C-29.1 287.2 -58.2 266.8 -80 246.3C-101.9 225.9 -116.6 205.4 -140.9 194C-165.2 182.5 -199.2 180.1 -227.9 165.6C-256.7 151.1 -280.1 124.7 -292.5 95.1C-304.9 65.4 -306.3 32.7 -307.6 0L0 0Z" fill="#182b4e"></path><path d="M0 263.7C-24.9 246.2 -49.8 228.7 -68.6 211.1C-87.4 193.6 -99.9 176.1 -120.8 166.3C-141.6 156.4 -170.8 154.3 -195.4 142C-220 129.6 -240.1 106.9 -250.8 81.5C-261.4 56.1 -262.5 28 -263.7 0L0 0Z" fill="#20456f"></path><path d="M0 219.7C-20.8 205.1 -41.5 190.5 -57.2 175.9C-72.8 161.3 -83.3 146.7 -100.7 138.5C-118 130.4 -142.3 128.6 -162.8 118.3C-183.3 108 -200.1 89 -209 67.9C-217.8 46.7 -218.8 23.4 -219.7 0L0 0Z" fill="#236190"></path><path d="M0 175.8C-16.6 164.1 -33.2 152.4 -45.7 140.8C-58.2 129.1 -66.6 117.4 -80.5 110.8C-94.4 104.3 -113.8 102.9 -130.3 94.6C-146.7 86.4 -160.1 71.2 -167.2 54.3C-174.3 37.4 -175 18.7 -175.8 0L0 0Z" fill="#2180b1"></path><path d="M0 131.8C-12.5 123.1 -24.9 114.3 -34.3 105.6C-43.7 96.8 -50 88 -60.4 83.1C-70.8 78.2 -85.4 77.2 -97.7 71C-110 64.8 -120.1 53.4 -125.4 40.7C-130.7 28 -131.3 14 -131.8 0L0 0Z" fill="#1a9fd2"></path><path d="M0 87.9C-8.3 82.1 -16.6 76.2 -22.9 70.4C-29.1 64.5 -33.3 58.7 -40.3 55.4C-47.2 52.1 -56.9 51.4 -65.1 47.3C-73.3 43.2 -80 35.6 -83.6 27.2C-87.1 18.7 -87.5 9.3 -87.9 0L0 0Z" fill="#09c0f0"></path><path d="M0 43.9C-4.2 41 -8.3 38.1 -11.4 35.2C-14.6 32.3 -16.7 29.3 -20.1 27.7C-23.6 26.1 -28.5 25.7 -32.6 23.7C-36.7 21.6 -40 17.8 -41.8 13.6C-43.6 9.3 -43.8 4.7 -43.9 0L0 0Z" fill="#00d1ff"></path></g><g transform="translate(0, 600)"><path d="M0 -351.5C37.8 -342.9 75.5 -334.2 102 -313.8C128.4 -293.5 143.5 -261.3 178.7 -245.9C213.9 -230.5 269.1 -231.8 284.4 -206.6C299.7 -181.4 275.1 -129.7 279.6 -90.9C284.1 -52 317.8 -26 351.5 0L0 0Z" fill="#0d132f"></path><path d="M0 -307.6C33 -300 66.1 -292.5 89.2 -274.6C112.4 -256.8 125.6 -228.7 156.4 -215.2C187.1 -201.7 235.5 -202.9 248.9 -180.8C262.2 -158.7 240.7 -113.5 244.7 -79.5C248.6 -45.5 278.1 -22.7 307.6 0L0 0Z" fill="#182b4e"></path><path d="M0 -263.7C28.3 -257.2 56.7 -250.7 76.5 -235.4C96.3 -220.1 107.6 -196 134 -184.5C160.4 -172.9 201.8 -173.9 213.3 -155C224.8 -136.1 206.3 -97.3 209.7 -68.1C213.1 -39 238.4 -19.5 263.7 0L0 0Z" fill="#20456f"></path><path d="M0 -219.7C23.6 -214.3 47.2 -208.9 63.7 -196.2C80.3 -183.4 89.7 -163.3 111.7 -153.7C133.7 -144.1 168.2 -144.9 177.8 -129.1C187.3 -113.4 171.9 -81.1 174.8 -56.8C177.6 -32.5 198.7 -16.2 219.7 0L0 0Z" fill="#236190"></path><path d="M0 -175.8C18.9 -171.4 37.8 -167.1 51 -156.9C64.2 -146.7 71.8 -130.7 89.3 -123C106.9 -115.3 134.5 -115.9 142.2 -103.3C149.9 -90.7 137.5 -64.9 139.8 -45.4C142.1 -26 158.9 -13 175.8 0L0 0Z" fill="#2180b1"></path><path d="M0 -131.8C14.2 -128.6 28.3 -125.3 38.2 -117.7C48.2 -110 53.8 -98 67 -92.2C80.2 -86.5 100.9 -86.9 106.7 -77.5C112.4 -68 103.2 -48.6 104.9 -34.1C106.6 -19.5 119.2 -9.7 131.8 0L0 0Z" fill="#1a9fd2"></path><path d="M0 -87.9C9.4 -85.7 18.9 -83.6 25.5 -78.5C32.1 -73.4 35.9 -65.3 44.7 -61.5C53.5 -57.6 67.3 -58 71.1 -51.7C74.9 -45.4 68.8 -32.4 69.9 -22.7C71 -13 79.5 -6.5 87.9 0L0 0Z" fill="#09c0f0"></path><path d="M0 -43.9C4.7 -42.9 9.4 -41.8 12.7 -39.2C16.1 -36.7 17.9 -32.7 22.3 -30.7C26.7 -28.8 33.6 -29 35.6 -25.8C37.5 -22.7 34.4 -16.2 35 -11.4C35.5 -6.5 39.7 -3.2 43.9 0L0 0Z" fill="#00d1ff"></path></g></svg>