<svg id="visual" viewBox="0 0 900 600" width="900" height="600" xmlns="http://www.w3.org/2000/svg" xmlns:xlink="http://www.w3.org/1999/xlink" version="1.1"><rect x="0" y="0" width="900" height="600" fill="#140021"></rect><path d="M0 336L129 336L129 320L257 320L257 251L386 251L386 300L514 300L514 291L643 291L643 276L771 276L771 215L900 215L900 302L900 0L900 0L771 0L771 0L643 0L643 0L514 0L514 0L386 0L386 0L257 0L257 0L129 0L129 0L0 0Z" fill="#9900ff"></path><path d="M0 196L129 196L129 163L257 163L257 138L386 138L386 208L514 208L514 135L643 135L643 184L771 184L771 173L900 173L900 153L900 0L900 0L771 0L771 0L643 0L643 0L514 0L514 0L386 0L386 0L257 0L257 0L129 0L129 0L0 0Z" fill="#7700c6"></path><path d="M0 75L129 75L129 102L257 102L257 152L386 152L386 113L514 113L514 71L643 71L643 134L771 134L771 137L900 137L900 54L900 0L900 0L771 0L771 0L643 0L643 0L514 0L514 0L386 0L386 0L257 0L257 0L129 0L129 0L0 0Z" fill="#560090"></path></svg>