<svg id="visual" viewBox="0 0 900 600" width="900" height="600" xmlns="http://www.w3.org/2000/svg" xmlns:xlink="http://www.w3.org/1999/xlink" version="1.1"><rect x="0" y="0" width="900" height="600" fill="#001220"></rect><path d="M0 337L18.8 346.5C37.7 356 75.3 375 112.8 377.7C150.3 380.3 187.7 366.7 225.2 360.8C262.7 355 300.3 357 337.8 356.7C375.3 356.3 412.7 353.7 450.2 350.5C487.7 347.3 525.3 343.7 562.8 353.3C600.3 363 637.7 386 675.2 385.7C712.7 385.3 750.3 361.7 787.8 350C825.3 338.3 862.7 338.7 881.3 338.8L900 339L900 601L881.3 601C862.7 601 825.3 601 787.8 601C750.3 601 712.7 601 675.2 601C637.7 601 600.3 601 562.8 601C525.3 601 487.7 601 450.2 601C412.7 601 375.3 601 337.8 601C300.3 601 262.7 601 225.2 601C187.7 601 150.3 601 112.8 601C75.3 601 37.7 601 18.8 601L0 601Z" fill="#9900ff"></path><path d="M0 366L18.8 374C37.7 382 75.3 398 112.8 400C150.3 402 187.7 390 225.2 392.3C262.7 394.7 300.3 411.3 337.8 420.8C375.3 430.3 412.7 432.7 450.2 425.8C487.7 419 525.3 403 562.8 390.5C600.3 378 637.7 369 675.2 364.2C712.7 359.3 750.3 358.7 787.8 364C825.3 369.3 862.7 380.7 881.3 386.3L900 392L900 601L881.3 601C862.7 601 825.3 601 787.8 601C750.3 601 712.7 601 675.2 601C637.7 601 600.3 601 562.8 601C525.3 601 487.7 601 450.2 601C412.7 601 375.3 601 337.8 601C300.3 601 262.7 601 225.2 601C187.7 601 150.3 601 112.8 601C75.3 601 37.7 601 18.8 601L0 601Z" fill="#a602fd"></path><path d="M0 390L18.8 399C37.7 408 75.3 426 112.8 438.3C150.3 450.7 187.7 457.3 225.2 459.2C262.7 461 300.3 458 337.8 450.3C375.3 442.7 412.7 430.3 450.2 423.2C487.7 416 525.3 414 562.8 421.3C600.3 428.7 637.7 445.3 675.2 450.2C712.7 455 750.3 448 787.8 438.5C825.3 429 862.7 417 881.3 411L900 405L900 601L881.3 601C862.7 601 825.3 601 787.8 601C750.3 601 712.7 601 675.2 601C637.7 601 600.3 601 562.8 601C525.3 601 487.7 601 450.2 601C412.7 601 375.3 601 337.8 601C300.3 601 262.7 601 225.2 601C187.7 601 150.3 601 112.8 601C75.3 601 37.7 601 18.8 601L0 601Z" fill="#b107fb"></path><path d="M0 427L18.8 434.3C37.7 441.7 75.3 456.3 112.8 457.3C150.3 458.3 187.7 445.7 225.2 440C262.7 434.3 300.3 435.7 337.8 440.3C375.3 445 412.7 453 450.2 453C487.7 453 525.3 445 562.8 440.8C600.3 436.7 637.7 436.3 675.2 433C712.7 429.7 750.3 423.3 787.8 425.5C825.3 427.7 862.7 438.3 881.3 443.7L900 449L900 601L881.3 601C862.7 601 825.3 601 787.8 601C750.3 601 712.7 601 675.2 601C637.7 601 600.3 601 562.8 601C525.3 601 487.7 601 450.2 601C412.7 601 375.3 601 337.8 601C300.3 601 262.7 601 225.2 601C187.7 601 150.3 601 112.8 601C75.3 601 37.7 601 18.8 601L0 601Z" fill="#bc0ef9"></path><path d="M0 443L18.8 443.5C37.7 444 75.3 445 112.8 452.5C150.3 460 187.7 474 225.2 472.2C262.7 470.3 300.3 452.7 337.8 445.3C375.3 438 412.7 441 450.2 449.2C487.7 457.3 525.3 470.7 562.8 475.8C600.3 481 637.7 478 675.2 476.7C712.7 475.3 750.3 475.7 787.8 467.5C825.3 459.3 862.7 442.7 881.3 434.3L900 426L900 601L881.3 601C862.7 601 825.3 601 787.8 601C750.3 601 712.7 601 675.2 601C637.7 601 600.3 601 562.8 601C525.3 601 487.7 601 450.2 601C412.7 601 375.3 601 337.8 601C300.3 601 262.7 601 225.2 601C187.7 601 150.3 601 112.8 601C75.3 601 37.7 601 18.8 601L0 601Z" fill="#c615f8"></path><path d="M0 476L18.8 479.2C37.7 482.3 75.3 488.7 112.8 491C150.3 493.3 187.7 491.7 225.2 492.8C262.7 494 300.3 498 337.8 496C375.3 494 412.7 486 450.2 477.2C487.7 468.3 525.3 458.7 562.8 459.7C600.3 460.7 637.7 472.3 675.2 481.2C712.7 490 750.3 496 787.8 494.2C825.3 492.3 862.7 482.7 881.3 477.8L900 473L900 601L881.3 601C862.7 601 825.3 601 787.8 601C750.3 601 712.7 601 675.2 601C637.7 601 600.3 601 562.8 601C525.3 601 487.7 601 450.2 601C412.7 601 375.3 601 337.8 601C300.3 601 262.7 601 225.2 601C187.7 601 150.3 601 112.8 601C75.3 601 37.7 601 18.8 601L0 601Z" fill="#cf1cf6"></path><path d="M0 468L18.8 476.7C37.7 485.3 75.3 502.7 112.8 502C150.3 501.3 187.7 482.7 225.2 474.5C262.7 466.3 300.3 468.7 337.8 473C375.3 477.3 412.7 483.7 450.2 482.5C487.7 481.3 525.3 472.7 562.8 468.3C600.3 464 637.7 464 675.2 471.8C712.7 479.7 750.3 495.3 787.8 494.8C825.3 494.3 862.7 477.7 881.3 469.3L900 461L900 601L881.3 601C862.7 601 825.3 601 787.8 601C750.3 601 712.7 601 675.2 601C637.7 601 600.3 601 562.8 601C525.3 601 487.7 601 450.2 601C412.7 601 375.3 601 337.8 601C300.3 601 262.7 601 225.2 601C187.7 601 150.3 601 112.8 601C75.3 601 37.7 601 18.8 601L0 601Z" fill="#d822f4"></path><path d="M0 516L18.8 515.3C37.7 514.7 75.3 513.3 112.8 515.2C150.3 517 187.7 522 225.2 523.7C262.7 525.3 300.3 523.7 337.8 523.5C375.3 523.3 412.7 524.7 450.2 517.8C487.7 511 525.3 496 562.8 494.7C600.3 493.3 637.7 505.7 675.2 513.7C712.7 521.7 750.3 525.3 787.8 523.3C825.3 521.3 862.7 513.7 881.3 509.8L900 506L900 601L881.3 601C862.7 601 825.3 601 787.8 601C750.3 601 712.7 601 675.2 601C637.7 601 600.3 601 562.8 601C525.3 601 487.7 601 450.2 601C412.7 601 375.3 601 337.8 601C300.3 601 262.7 601 225.2 601C187.7 601 150.3 601 112.8 601C75.3 601 37.7 601 18.8 601L0 601Z" fill="#e129f3"></path><path d="M0 503L18.8 505.2C37.7 507.3 75.3 511.7 112.8 511.8C150.3 512 187.7 508 225.2 506.5C262.7 505 300.3 506 337.8 510.5C375.3 515 412.7 523 450.2 529C487.7 535 525.3 539 562.8 534C600.3 529 637.7 515 675.2 508.2C712.7 501.3 750.3 501.7 787.8 507.7C825.3 513.7 862.7 525.3 881.3 531.2L900 537L900 601L881.3 601C862.7 601 825.3 601 787.8 601C750.3 601 712.7 601 675.2 601C637.7 601 600.3 601 562.8 601C525.3 601 487.7 601 450.2 601C412.7 601 375.3 601 337.8 601C300.3 601 262.7 601 225.2 601C187.7 601 150.3 601 112.8 601C75.3 601 37.7 601 18.8 601L0 601Z" fill="#e930f2"></path><path d="M0 521L18.8 521.7C37.7 522.3 75.3 523.7 112.8 527C150.3 530.3 187.7 535.7 225.2 536C262.7 536.3 300.3 531.7 337.8 530.2C375.3 528.7 412.7 530.3 450.2 534.3C487.7 538.3 525.3 544.7 562.8 544C600.3 543.3 637.7 535.7 675.2 531.7C712.7 527.7 750.3 527.3 787.8 530.5C825.3 533.7 862.7 540.3 881.3 543.7L900 547L900 601L881.3 601C862.7 601 825.3 601 787.8 601C750.3 601 712.7 601 675.2 601C637.7 601 600.3 601 562.8 601C525.3 601 487.7 601 450.2 601C412.7 601 375.3 601 337.8 601C300.3 601 262.7 601 225.2 601C187.7 601 150.3 601 112.8 601C75.3 601 37.7 601 18.8 601L0 601Z" fill="#f137f0"></path><path d="M0 560L18.8 562.5C37.7 565 75.3 570 112.8 571.7C150.3 573.3 187.7 571.7 225.2 567C262.7 562.3 300.3 554.7 337.8 552.5C375.3 550.3 412.7 553.7 450.2 558C487.7 562.3 525.3 567.7 562.8 570.2C600.3 572.7 637.7 572.3 675.2 572.7C712.7 573 750.3 574 787.8 572C825.3 570 862.7 565 881.3 562.5L900 560L900 601L881.3 601C862.7 601 825.3 601 787.8 601C750.3 601 712.7 601 675.2 601C637.7 601 600.3 601 562.8 601C525.3 601 487.7 601 450.2 601C412.7 601 375.3 601 337.8 601C300.3 601 262.7 601 225.2 601C187.7 601 150.3 601 112.8 601C75.3 601 37.7 601 18.8 601L0 601Z" fill="#f83def"></path><path d="M0 562L18.8 564.7C37.7 567.3 75.3 572.7 112.8 576C150.3 579.3 187.7 580.7 225.2 578.3C262.7 576 300.3 570 337.8 570.7C375.3 571.3 412.7 578.7 450.2 579.3C487.7 580 525.3 574 562.8 574.3C600.3 574.7 637.7 581.3 675.2 580.5C712.7 579.7 750.3 571.3 787.8 569.3C825.3 567.3 862.7 571.7 881.3 573.8L900 576L900 601L881.3 601C862.7 601 825.3 601 787.8 601C750.3 601 712.7 601 675.2 601C637.7 601 600.3 601 562.8 601C525.3 601 487.7 601 450.2 601C412.7 601 375.3 601 337.8 601C300.3 601 262.7 601 225.2 601C187.7 601 150.3 601 112.8 601C75.3 601 37.7 601 18.8 601L0 601Z" fill="#ff44ee"></path></svg>