<svg id="visual" viewBox="0 0 900 600" width="900" height="600" xmlns="http://www.w3.org/2000/svg" xmlns:xlink="http://www.w3.org/1999/xlink" version="1.1"><rect width="900" height="600" fill="#080029"></rect><g><g transform="translate(474 102)"><path d="M0 -29.3L25.4 -14.6L25.4 14.6L0 29.3L-25.4 14.6L-25.4 -14.6Z" fill="none" stroke="#08c6f0" stroke-width="2"></path></g><g transform="translate(531 524)"><path d="M0 -5L4.3 -2.5L4.3 2.5L0 5L-4.3 2.5L-4.3 -2.5Z" fill="none" stroke="#08c6f0" stroke-width="2"></path></g><g transform="translate(84 426)"><path d="M0 -28L24.2 -14L24.2 14L0 28L-24.2 14L-24.2 -14Z" stroke="#08c6f0" fill="none" stroke-width="2"></path></g><g transform="translate(571 37)"><path d="M0 -11L9.5 -5.5L9.5 5.5L0 11L-9.5 5.5L-9.5 -5.5Z" stroke="#08c6f0" fill="none" stroke-width="2"></path></g><g transform="translate(568 171)"><path d="M0 -17L14.7 -8.5L14.7 8.5L0 17L-14.7 8.5L-14.7 -8.5Z" stroke="#08c6f0" fill="none" stroke-width="2"></path></g><g transform="translate(728 388)"><path d="M0 -17L14.7 -8.5L14.7 8.5L0 17L-14.7 8.5L-14.7 -8.5Z" stroke="#08c6f0" fill="none" stroke-width="2"></path></g><g transform="translate(487 306)"><path d="M0 -15L13 -7.5L13 7.5L0 15L-13 7.5L-13 -7.5Z" stroke="#08c6f0" fill="none" stroke-width="2"></path></g><g transform="translate(333 139)"><path d="M0 -9L7.8 -4.5L7.8 4.5L0 9L-7.8 4.5L-7.8 -4.5Z" stroke="#08c6f0" fill="none" stroke-width="2"></path></g><g transform="translate(600 116)"><path d="M0 -5L4.3 -2.5L4.3 2.5L0 5L-4.3 2.5L-4.3 -2.5Z" stroke="#08c6f0" fill="none" stroke-width="2"></path></g><g transform="translate(621 521)"><path d="M0 -7L6.1 -3.5L6.1 3.5L0 7L-6.1 3.5L-6.1 -3.5Z" stroke="#08c6f0" fill="none" stroke-width="2"></path></g><g transform="translate(690 553)"><path d="M0 -9L7.8 -4.5L7.8 4.5L0 9L-7.8 4.5L-7.8 -4.5Z" stroke="#08c6f0" fill="none" stroke-width="2"></path></g><g transform="translate(831 55)"><path d="M0 -11L9.5 -5.5L9.5 5.5L0 11L-9.5 5.5L-9.5 -5.5Z" stroke="#08c6f0" fill="none" stroke-width="2"></path></g><g transform="translate(451 203)"><path d="M0 -21L18.2 -10.5L18.2 10.5L0 21L-18.2 10.5L-18.2 -10.5Z" stroke="#08c6f0" fill="none" stroke-width="2"></path></g><g transform="translate(275 514)"><path d="M0 -22L19.1 -11L19.1 11L0 22L-19.1 11L-19.1 -11Z" stroke="#08c6f0" fill="none" stroke-width="2"></path></g><g transform="translate(181 313)"><path d="M0 -28L24.2 -14L24.2 14L0 28L-24.2 14L-24.2 -14Z" stroke="#08c6f0" fill="none" stroke-width="2"></path></g><g transform="translate(339 199)"><path d="M0 -22L19.1 -11L19.1 11L0 22L-19.1 11L-19.1 -11Z" stroke="#08c6f0" fill="none" stroke-width="2"></path></g><g transform="translate(198 217)"><path d="M0 -21L18.2 -10.5L18.2 10.5L0 21L-18.2 10.5L-18.2 -10.5Z" stroke="#08c6f0" fill="none" stroke-width="2"></path></g><g transform="translate(364 32)"><path d="M0 -8L6.9 -4L6.9 4L0 8L-6.9 4L-6.9 -4Z" stroke="#08c6f0" fill="none" stroke-width="2"></path></g><g transform="translate(255 192)"><path d="M0 -13L11.3 -6.5L11.3 6.5L0 13L-11.3 6.5L-11.3 -6.5Z" stroke="#08c6f0" fill="none" stroke-width="2"></path></g><g transform="translate(138 257)"><path d="M0 -23L19.9 -11.5L19.9 11.5L0 23L-19.9 11.5L-19.9 -11.5Z" stroke="#08c6f0" fill="none" stroke-width="2"></path></g><g transform="translate(412 305)"><path d="M0 -23L19.9 -11.5L19.9 11.5L0 23L-19.9 11.5L-19.9 -11.5Z" stroke="#08c6f0" fill="none" stroke-width="2"></path></g><g transform="translate(621 361)"><path d="M0 -11L9.5 -5.5L9.5 5.5L0 11L-9.5 5.5L-9.5 -5.5Z" stroke="#08c6f0" fill="none" stroke-width="2"></path></g><g transform="translate(792 219)"><path d="M0 -13L11.3 -6.5L11.3 6.5L0 13L-11.3 6.5L-11.3 -6.5Z" stroke="#08c6f0" fill="none" stroke-width="2"></path></g><g transform="translate(862 305)"><path d="M0 -25L21.7 -12.5L21.7 12.5L0 25L-21.7 12.5L-21.7 -12.5Z" stroke="#08c6f0" fill="none" stroke-width="2"></path></g><g transform="translate(64 568)"><path d="M0 -11L9.5 -5.5L9.5 5.5L0 11L-9.5 5.5L-9.5 -5.5Z" stroke="#08c6f0" fill="none" stroke-width="2"></path></g><g transform="translate(133 379)"><path d="M0 -10L8.7 -5L8.7 5L0 10L-8.7 5L-8.7 -5Z" stroke="#08c6f0" fill="none" stroke-width="2"></path></g><g transform="translate(688 116)"><path d="M0 -20L17.3 -10L17.3 10L0 20L-17.3 10L-17.3 -10Z" stroke="#08c6f0" fill="none" stroke-width="2"></path></g><g transform="translate(707 452)"><path d="M0 -16L13.9 -8L13.9 8L0 16L-13.9 8L-13.9 -8Z" stroke="#08c6f0" fill="none" stroke-width="2"></path></g><g transform="translate(628 449)"><path d="M0 -16L13.9 -8L13.9 8L0 16L-13.9 8L-13.9 -8Z" stroke="#08c6f0" fill="none" stroke-width="2"></path></g><g transform="translate(675 314)"><path d="M0 -18L15.6 -9L15.6 9L0 18L-15.6 9L-15.6 -9Z" stroke="#08c6f0" fill="none" stroke-width="2"></path></g><g transform="translate(343 259)"><path d="M0 -19L16.5 -9.5L16.5 9.5L0 19L-16.5 9.5L-16.5 -9.5Z" stroke="#08c6f0" fill="none" stroke-width="2"></path></g><g transform="translate(796 137)"><path d="M0 -13L11.3 -6.5L11.3 6.5L0 13L-11.3 6.5L-11.3 -6.5Z" stroke="#08c6f0" fill="none" stroke-width="2"></path></g><g transform="translate(403 496)"><path d="M0 -15L13 -7.5L13 7.5L0 15L-13 7.5L-13 -7.5Z" stroke="#08c6f0" fill="none" stroke-width="2"></path></g><g transform="translate(153 506)"><path d="M0 -12L10.4 -6L10.4 6L0 12L-10.4 6L-10.4 -6Z" stroke="#08c6f0" fill="none" stroke-width="2"></path></g><g transform="translate(464 44)"><path d="M0 -3L2.6 -1.5L2.6 1.5L0 3L-2.6 1.5L-2.6 -1.5Z" stroke="#08c6f0" fill="none" stroke-width="2"></path></g><g transform="translate(215 442)"><path d="M0 -10L8.7 -5L8.7 5L0 10L-8.7 5L-8.7 -5Z" stroke="#08c6f0" fill="none" stroke-width="2"></path></g><g transform="translate(425 377)"><path d="M0 -25L21.7 -12.5L21.7 12.5L0 25L-21.7 12.5L-21.7 -12.5Z" stroke="#08c6f0" fill="none" stroke-width="2"></path></g><g transform="translate(808 481)"><path d="M0 -12L10.4 -6L10.4 6L0 12L-10.4 6L-10.4 -6Z" stroke="#08c6f0" fill="none" stroke-width="2"></path></g><g transform="translate(726 247)"><path d="M0 -25L21.7 -12.5L21.7 12.5L0 25L-21.7 12.5L-21.7 -12.5Z" stroke="#08c6f0" fill="none" stroke-width="2"></path></g><g transform="translate(366 565)"><path d="M0 -22L19.1 -11L19.1 11L0 22L-19.1 11L-19.1 -11Z" stroke="#08c6f0" fill="none" stroke-width="2"></path></g><g transform="translate(197 105)"><path d="M0 -28L24.2 -14L24.2 14L0 28L-24.2 14L-24.2 -14Z" stroke="#08c6f0" fill="none" stroke-width="2"></path></g><g transform="translate(840 394)"><path d="M0 -22L19.1 -11L19.1 11L0 22L-19.1 11L-19.1 -11Z" stroke="#08c6f0" fill="none" stroke-width="2"></path></g><g transform="translate(568 387)"><path d="M0 -8L6.9 -4L6.9 4L0 8L-6.9 4L-6.9 -4Z" stroke="#08c6f0" fill="none" stroke-width="2"></path></g><g transform="translate(398 155)"><path d="M0 -24L20.8 -12L20.8 12L0 24L-20.8 12L-20.8 -12Z" stroke="#08c6f0" fill="none" stroke-width="2"></path></g><g transform="translate(763 73)"><path d="M0 -26L22.5 -13L22.5 13L0 26L-22.5 13L-22.5 -13Z" stroke="#08c6f0" fill="none" stroke-width="2"></path></g><g transform="translate(661 186)"><path d="M0 -23L19.9 -11.5L19.9 11.5L0 23L-19.9 11.5L-19.9 -11.5Z" stroke="#08c6f0" fill="none" stroke-width="2"></path></g><g transform="translate(556 278)"><path d="M0 -25L21.7 -12.5L21.7 12.5L0 25L-21.7 12.5L-21.7 -12.5Z" stroke="#08c6f0" fill="none" stroke-width="2"></path></g><g transform="translate(75 302)"><path d="M0 -7L6.1 -3.5L6.1 3.5L0 7L-6.1 3.5L-6.1 -3.5Z" stroke="#08c6f0" fill="none" stroke-width="2"></path></g><g transform="translate(193 31)"><path d="M0 -25L21.7 -12.5L21.7 12.5L0 25L-21.7 12.5L-21.7 -12.5Z" stroke="#08c6f0" fill="none" stroke-width="2"></path></g><g transform="translate(357 400)"><path d="M0 -25L21.7 -12.5L21.7 12.5L0 25L-21.7 12.5L-21.7 -12.5Z" stroke="#08c6f0" fill="none" stroke-width="2"></path></g><g transform="translate(845 181)"><path d="M0 -10L8.7 -5L8.7 5L0 10L-8.7 5L-8.7 -5Z" stroke="#08c6f0" fill="none" stroke-width="2"></path></g><g transform="translate(727 164)"><path d="M0 -12L10.4 -6L10.4 6L0 12L-10.4 6L-10.4 -6Z" stroke="#08c6f0" fill="none" stroke-width="2"></path></g><g transform="translate(780 556)"><path d="M0 -25L21.7 -12.5L21.7 12.5L0 25L-21.7 12.5L-21.7 -12.5Z" stroke="#08c6f0" fill="none" stroke-width="2"></path></g><g transform="translate(869 557)"><path d="M0 -21L18.2 -10.5L18.2 10.5L0 21L-18.2 10.5L-18.2 -10.5Z" stroke="#08c6f0" fill="none" stroke-width="2"></path></g><g transform="translate(81 133)"><path d="M0 -21L18.2 -10.5L18.2 10.5L0 21L-18.2 10.5L-18.2 -10.5Z" stroke="#08c6f0" fill="none" stroke-width="2"></path></g><g transform="translate(508 419)"><path d="M0 -7L6.1 -3.5L6.1 3.5L0 7L-6.1 3.5L-6.1 -3.5Z" stroke="#08c6f0" fill="none" stroke-width="2"></path></g><g transform="translate(55 230)"><path d="M0 -24L20.8 -12L20.8 12L0 24L-20.8 12L-20.8 -12Z" stroke="#08c6f0" fill="none" stroke-width="2"></path></g><g transform="translate(649 30)"><path d="M0 -4L3.5 -2L3.5 2L0 4L-3.5 2L-3.5 -2Z" stroke="#08c6f0" fill="none" stroke-width="2"></path></g><g transform="translate(444 564)"><path d="M0 -14L12.1 -7L12.1 7L0 14L-12.1 7L-12.1 -7Z" stroke="#08c6f0" fill="none" stroke-width="2"></path></g><g transform="translate(293 321)"><path d="M0 -13L11.3 -6.5L11.3 6.5L0 13L-11.3 6.5L-11.3 -6.5Z" stroke="#08c6f0" fill="none" stroke-width="2"></path></g><g transform="translate(56 481)"><path d="M0 -20L17.3 -10L17.3 10L0 20L-17.3 10L-17.3 -10Z" stroke="#08c6f0" fill="none" stroke-width="2"></path></g><g transform="translate(870 119)"><path d="M0 -15L13 -7.5L13 7.5L0 15L-13 7.5L-13 -7.5Z" stroke="#08c6f0" fill="none" stroke-width="2"></path></g><g transform="translate(618 228)"><path d="M0 -27L23.4 -13.5L23.4 13.5L0 27L-23.4 13.5L-23.4 -13.5Z" stroke="#08c6f0" fill="none" stroke-width="2"></path></g><g transform="translate(252 395)"><path d="M0 -5L4.3 -2.5L4.3 2.5L0 5L-4.3 2.5L-4.3 -2.5Z" stroke="#08c6f0" fill="none" stroke-width="2"></path></g><g transform="translate(230 559)"><path d="M0 -4L3.5 -2L3.5 2L0 4L-3.5 2L-3.5 -2Z" stroke="#08c6f0" fill="none" stroke-width="2"></path></g><g transform="translate(75 67)"><path d="M0 -22L19.1 -11L19.1 11L0 22L-19.1 11L-19.1 -11Z" stroke="#08c6f0" fill="none" stroke-width="2"></path></g><g transform="translate(783 286)"><path d="M0 -11L9.5 -5.5L9.5 5.5L0 11L-9.5 5.5L-9.5 -5.5Z" stroke="#08c6f0" fill="none" stroke-width="2"></path></g><g transform="translate(263 52)"><path d="M0 -27L23.4 -13.5L23.4 13.5L0 27L-23.4 13.5L-23.4 -13.5Z" stroke="#08c6f0" fill="none" stroke-width="2"></path></g><g transform="translate(298 455)"><path d="M0 -18L15.6 -9L15.6 9L0 18L-15.6 9L-15.6 -9Z" stroke="#08c6f0" fill="none" stroke-width="2"></path></g><g transform="translate(134 83)"><path d="M0 -24L20.8 -12L20.8 12L0 24L-20.8 12L-20.8 -12Z" stroke="#08c6f0" fill="none" stroke-width="2"></path></g><g transform="translate(503 155)"><path d="M0 -6L5.2 -3L5.2 3L0 6L-5.2 3L-5.2 -3Z" stroke="#08c6f0" fill="none" stroke-width="2"></path></g><g transform="translate(248 276)"><path d="M0 -22L19.1 -11L19.1 11L0 22L-19.1 11L-19.1 -11Z" stroke="#08c6f0" fill="none" stroke-width="2"></path></g><g transform="translate(794 358)"><path d="M0 -10L8.7 -5L8.7 5L0 10L-8.7 5L-8.7 -5Z" stroke="#08c6f0" fill="none" stroke-width="2"></path></g><g transform="translate(472 504)"><path d="M0 -5L4.3 -2.5L4.3 2.5L0 5L-4.3 2.5L-4.3 -2.5Z" stroke="#08c6f0" fill="none" stroke-width="2"></path></g><g transform="translate(135 570)"><path d="M0 -19L16.5 -9.5L16.5 9.5L0 19L-16.5 9.5L-16.5 -9.5Z" stroke="#08c6f0" fill="none" stroke-width="2"></path></g><g transform="translate(304 567)"><path d="M0 -6L5.2 -3L5.2 3L0 6L-5.2 3L-5.2 -3Z" stroke="#08c6f0" fill="none" stroke-width="2"></path></g><g transform="translate(164 162)"><path d="M0 -26L22.5 -13L22.5 13L0 26L-22.5 13L-22.5 -13Z" stroke="#08c6f0" fill="none" stroke-width="2"></path></g><g transform="translate(261 131)"><path d="M0 -25L21.7 -12.5L21.7 12.5L0 25L-21.7 12.5L-21.7 -12.5Z" stroke="#08c6f0" fill="none" stroke-width="2"></path></g><g transform="translate(445 448)"><path d="M0 -10L8.7 -5L8.7 5L0 10L-8.7 5L-8.7 -5Z" stroke="#08c6f0" fill="none" stroke-width="2"></path></g><g transform="translate(387 90)"><path d="M0 -13L11.3 -6.5L11.3 6.5L0 13L-11.3 6.5L-11.3 -6.5Z" stroke="#08c6f0" fill="none" stroke-width="2"></path></g><g transform="translate(569 447)"><path d="M0 -9L7.8 -4.5L7.8 4.5L0 9L-7.8 4.5L-7.8 -4.5Z" stroke="#08c6f0" fill="none" stroke-width="2"></path></g><g transform="translate(353 317)"><path d="M0 -22L19.1 -11L19.1 11L0 22L-19.1 11L-19.1 -11Z" stroke="#08c6f0" fill="none" stroke-width="2"></path></g><g transform="translate(771 432)"><path d="M0 -4L3.5 -2L3.5 2L0 4L-3.5 2L-3.5 -2Z" stroke="#08c6f0" fill="none" stroke-width="2"></path></g><g transform="translate(31 361)"><path d="M0 -18L15.6 -9L15.6 9L0 18L-15.6 9L-15.6 -9Z" stroke="#08c6f0" fill="none" stroke-width="2"></path></g><g transform="translate(621 286)"><path d="M0 -7L6.1 -3.5L6.1 3.5L0 7L-6.1 3.5L-6.1 -3.5Z" stroke="#08c6f0" fill="none" stroke-width="2"></path></g><g transform="translate(114 199)"><path d="M0 -14L12.1 -7L12.1 7L0 14L-12.1 7L-12.1 -7Z" stroke="#08c6f0" fill="none" stroke-width="2"></path></g><g transform="translate(867 454)"><path d="M0 -3L2.6 -1.5L2.6 1.5L0 3L-2.6 1.5L-2.6 -1.5Z" stroke="#08c6f0" fill="none" stroke-width="2"></path></g><g transform="translate(722 30)"><path d="M0 -4L3.5 -2L3.5 2L0 4L-3.5 2L-3.5 -2Z" stroke="#08c6f0" fill="none" stroke-width="2"></path></g><g transform="translate(538 334)"><path d="M0 -14L12.1 -7L12.1 7L0 14L-12.1 7L-12.1 -7Z" stroke="#08c6f0" fill="none" stroke-width="2"></path></g><g transform="translate(575 570)"><path d="M0 -23L19.9 -11.5L19.9 11.5L0 23L-19.9 11.5L-19.9 -11.5Z" stroke="#08c6f0" fill="none" stroke-width="2"></path></g><g transform="translate(334 513)"><path d="M0 -23L19.9 -11.5L19.9 11.5L0 23L-19.9 11.5L-19.9 -11.5Z" stroke="#08c6f0" fill="none" stroke-width="2"></path></g><g transform="translate(154 445)"><path d="M0 -24L20.8 -12L20.8 12L0 24L-20.8 12L-20.8 -12Z" stroke="#08c6f0" fill="none" stroke-width="2"></path></g><g transform="translate(742 504)"><path d="M0 -25L21.7 -12.5L21.7 12.5L0 25L-21.7 12.5L-21.7 -12.5Z" stroke="#08c6f0" fill="none" stroke-width="2"></path></g><g transform="translate(536 92)"><path d="M0 -20L17.3 -10L17.3 10L0 20L-17.3 10L-17.3 -10Z" stroke="#08c6f0" fill="none" stroke-width="2"></path></g><g transform="translate(859 245)"><path d="M0 -9L7.8 -4.5L7.8 4.5L0 9L-7.8 4.5L-7.8 -4.5Z" stroke="#08c6f0" fill="none" stroke-width="2"></path></g><g transform="translate(320 81)"><path d="M0 -21L18.2 -10.5L18.2 10.5L0 21L-18.2 10.5L-18.2 -10.5Z" stroke="#08c6f0" fill="none" stroke-width="2"></path></g><g transform="translate(193 375)"><path d="M0 -22L19.1 -11L19.1 11L0 22L-19.1 11L-19.1 -11Z" stroke="#08c6f0" fill="none" stroke-width="2"></path></g><g transform="translate(666 402)"><path d="M0 -20L17.3 -10L17.3 10L0 20L-17.3 10L-17.3 -10Z" stroke="#08c6f0" fill="none" stroke-width="2"></path></g><g transform="translate(523 221)"><path d="M0 -3L2.6 -1.5L2.6 1.5L0 3L-2.6 1.5L-2.6 -1.5Z" stroke="#08c6f0" fill="none" stroke-width="2"></path></g><g transform="translate(33 172)"><path d="M0 -9L7.8 -4.5L7.8 4.5L0 9L-7.8 4.5L-7.8 -4.5Z" stroke="#08c6f0" fill="none" stroke-width="2"></path></g></g></svg>