<svg id="visual" viewBox="0 0 900 600" width="900" height="600" xmlns="http://www.w3.org/2000/svg" xmlns:xlink="http://www.w3.org/1999/xlink" version="1.1"><rect x="0" y="0" width="900" height="600" fill="#001d45"></rect><path d="M460 0L662 0L662 35L547 35L547 71L445 71L445 106L672 106L672 141L465 141L465 176L441 176L441 212L604 212L604 247L594 247L594 282L658 282L658 318L457 318L457 353L655 353L655 388L542 388L542 424L527 424L527 459L491 459L491 494L616 494L616 529L659 529L659 565L453 565L453 600L0 600L0 565L0 565L0 529L0 529L0 494L0 494L0 459L0 459L0 424L0 424L0 388L0 388L0 353L0 353L0 318L0 318L0 282L0 282L0 247L0 247L0 212L0 212L0 176L0 176L0 141L0 141L0 106L0 106L0 71L0 71L0 35L0 35L0 0L0 0Z" fill="#69a0ff"></path><path d="M335 0L422 0L422 35L424 35L424 71L336 71L336 106L539 106L539 141L545 141L545 176L570 176L570 212L343 212L343 247L455 247L455 282L480 282L480 318L451 318L451 353L331 353L331 388L419 388L419 424L547 424L547 459L499 459L499 494L378 494L378 529L487 529L487 565L529 565L529 600L0 600L0 565L0 565L0 529L0 529L0 494L0 494L0 459L0 459L0 424L0 424L0 388L0 388L0 353L0 353L0 318L0 318L0 282L0 282L0 247L0 247L0 212L0 212L0 176L0 176L0 141L0 141L0 106L0 106L0 71L0 71L0 35L0 35L0 0L0 0Z" fill="#4b8aff"></path><path d="M440 0L301 0L301 35L358 35L358 71L292 71L292 106L317 106L317 141L375 141L375 176L380 176L380 212L317 212L317 247L328 247L328 282L313 282L313 318L389 318L389 353L254 353L254 388L301 388L301 424L349 424L349 459L291 459L291 494L355 494L355 529L289 529L289 565L298 565L298 600L0 600L0 565L0 565L0 529L0 529L0 494L0 494L0 459L0 459L0 424L0 424L0 388L0 388L0 353L0 353L0 318L0 318L0 282L0 282L0 247L0 247L0 212L0 212L0 176L0 176L0 141L0 141L0 106L0 106L0 71L0 71L0 35L0 35L0 0L0 0Z" fill="#3172ff"></path><path d="M293 0L308 0L308 35L225 35L225 71L183 71L183 106L258 106L258 141L201 141L201 176L292 176L292 212L272 212L272 247L224 247L224 282L318 282L318 318L207 318L207 353L329 353L329 388L181 388L181 424L152 424L152 459L177 459L177 494L306 494L306 529L246 529L246 565L284 565L284 600L0 600L0 565L0 565L0 529L0 529L0 494L0 494L0 459L0 459L0 424L0 424L0 388L0 388L0 353L0 353L0 318L0 318L0 282L0 282L0 247L0 247L0 212L0 212L0 176L0 176L0 141L0 141L0 106L0 106L0 71L0 71L0 35L0 35L0 0L0 0Z" fill="#2857ff"></path><path d="M147 0L204 0L204 35L201 35L201 71L195 71L195 106L195 106L195 141L108 141L108 176L150 176L150 212L162 212L162 247L207 247L207 282L177 282L177 318L65 318L65 353L120 353L120 388L62 388L62 424L97 424L97 459L67 459L67 494L211 494L211 529L72 529L72 565L117 565L117 600L0 600L0 565L0 565L0 529L0 529L0 494L0 494L0 459L0 459L0 424L0 424L0 388L0 388L0 353L0 353L0 318L0 318L0 282L0 282L0 247L0 247L0 212L0 212L0 176L0 176L0 141L0 141L0 106L0 106L0 71L0 71L0 35L0 35L0 0L0 0Z" fill="#3e30ff"></path></svg>