<svg id="visual" viewBox="0 0 900 600" width="900" height="600" xmlns="http://www.w3.org/2000/svg" xmlns:xlink="http://www.w3.org/1999/xlink" version="1.1"><rect x="0" y="0" width="900" height="600" fill="#0d0033"></rect><path d="M0 163L15 174.3C30 185.7 60 208.3 90 200.2C120 192 150 153 180 147.3C210 141.7 240 169.3 270 172.2C300 175 330 153 360 147.2C390 141.3 420 151.7 450 174.8C480 198 510 234 540 227.3C570 220.7 600 171.3 630 169.8C660 168.3 690 214.7 720 216.8C750 219 780 177 810 176.2C840 175.3 870 215.7 885 235.8L900 256L900 0L885 0C870 0 840 0 810 0C780 0 750 0 720 0C690 0 660 0 630 0C600 0 570 0 540 0C510 0 480 0 450 0C420 0 390 0 360 0C330 0 300 0 270 0C240 0 210 0 180 0C150 0 120 0 90 0C60 0 30 0 15 0L0 0Z" fill="#9900FF" stroke-linecap="round" stroke-linejoin="miter"></path></svg>