<svg id="visual" viewBox="0 0 900 600" width="900" height="600" xmlns="http://www.w3.org/2000/svg" xmlns:xlink="http://www.w3.org/1999/xlink" version="1.1"><rect x="0" y="0" width="900" height="600" fill="#002233"></rect><path d="M0 93L8.3 104.5C16.7 116 33.3 139 50 152.5C66.7 166 83.3 170 100 171C116.7 172 133.3 170 150 158.3C166.7 146.7 183.3 125.3 200 124C216.7 122.7 233.3 141.3 250 152.5C266.7 163.7 283.3 167.3 300 156.2C316.7 145 333.3 119 350 106C366.7 93 383.3 93 400 104.2C416.7 115.3 433.3 137.7 450 154.7C466.7 171.7 483.3 183.3 500 176.3C516.7 169.3 533.3 143.7 550 135.5C566.7 127.3 583.3 136.7 600 140C616.7 143.3 633.3 140.7 650 140.5C666.7 140.3 683.3 142.7 700 142.8C716.7 143 733.3 141 750 141.3C766.7 141.7 783.3 144.3 800 153.7C816.7 163 833.3 179 850 176.5C866.7 174 883.3 153 891.7 142.5L900 132L900 0L891.7 0C883.3 0 866.7 0 850 0C833.3 0 816.7 0 800 0C783.3 0 766.7 0 750 0C733.3 0 716.7 0 700 0C683.3 0 666.7 0 650 0C633.3 0 616.7 0 600 0C583.3 0 566.7 0 550 0C533.3 0 516.7 0 500 0C483.3 0 466.7 0 450 0C433.3 0 416.7 0 400 0C383.3 0 366.7 0 350 0C333.3 0 316.7 0 300 0C283.3 0 266.7 0 250 0C233.3 0 216.7 0 200 0C183.3 0 166.7 0 150 0C133.3 0 116.7 0 100 0C83.3 0 66.7 0 50 0C33.3 0 16.7 0 8.3 0L0 0Z" fill="#0066FF" stroke-linecap="round" stroke-linejoin="miter"></path></svg>