<svg id="visual" viewBox="0 0 1920 1080" width="1920" height="1080" xmlns="http://www.w3.org/2000/svg" xmlns:xlink="http://www.w3.org/1999/xlink" version="1.1"><rect x="0" y="0" width="1920" height="1080" fill="#1b004e"></rect><path d="M0 503L26.7 511.7C53.3 520.3 106.7 537.7 160 551C213.3 564.3 266.7 573.7 320 571C373.3 568.3 426.7 553.7 480 546.3C533.3 539 586.7 539 640 551C693.3 563 746.7 587 800 587.5C853.3 588 906.7 565 960 551.5C1013.3 538 1066.7 534 1120 543.2C1173.3 552.3 1226.7 574.7 1280 581.7C1333.3 588.7 1386.7 580.3 1440 577.2C1493.3 574 1546.7 576 1600 584.3C1653.3 592.7 1706.7 607.3 1760 597.7C1813.3 588 1866.7 554 1893.3 537L1920 520L1920 0L1893.3 0C1866.7 0 1813.3 0 1760 0C1706.7 0 1653.3 0 1600 0C1546.7 0 1493.3 0 1440 0C1386.7 0 1333.3 0 1280 0C1226.7 0 1173.3 0 1120 0C1066.7 0 1013.3 0 960 0C906.7 0 853.3 0 800 0C746.7 0 693.3 0 640 0C586.7 0 533.3 0 480 0C426.7 0 373.3 0 320 0C266.7 0 213.3 0 160 0C106.7 0 53.3 0 26.7 0L0 0Z" fill="#7befff"></path><path d="M0 550L26.7 539C53.3 528 106.7 506 160 491.3C213.3 476.7 266.7 469.3 320 475.7C373.3 482 426.7 502 480 513C533.3 524 586.7 526 640 533.8C693.3 541.7 746.7 555.3 800 555.7C853.3 556 906.7 543 960 530C1013.3 517 1066.7 504 1120 504.5C1173.3 505 1226.7 519 1280 517.8C1333.3 516.7 1386.7 500.3 1440 500.3C1493.3 500.3 1546.7 516.7 1600 509.5C1653.3 502.3 1706.7 471.7 1760 472.3C1813.3 473 1866.7 505 1893.3 521L1920 537L1920 0L1893.3 0C1866.7 0 1813.3 0 1760 0C1706.7 0 1653.3 0 1600 0C1546.7 0 1493.3 0 1440 0C1386.7 0 1333.3 0 1280 0C1226.7 0 1173.3 0 1120 0C1066.7 0 1013.3 0 960 0C906.7 0 853.3 0 800 0C746.7 0 693.3 0 640 0C586.7 0 533.3 0 480 0C426.7 0 373.3 0 320 0C266.7 0 213.3 0 160 0C106.7 0 53.3 0 26.7 0L0 0Z" fill="#59e0fe"></path><path d="M0 482L26.7 475.7C53.3 469.3 106.7 456.7 160 442.8C213.3 429 266.7 414 320 404.7C373.3 395.3 426.7 391.7 480 408.5C533.3 425.3 586.7 462.7 640 469.7C693.3 476.7 746.7 453.3 800 439.7C853.3 426 906.7 422 960 424.2C1013.3 426.3 1066.7 434.7 1120 447.2C1173.3 459.7 1226.7 476.3 1280 477.7C1333.3 479 1386.7 465 1440 457.2C1493.3 449.3 1546.7 447.7 1600 452.3C1653.3 457 1706.7 468 1760 467C1813.3 466 1866.7 453 1893.3 446.5L1920 440L1920 0L1893.3 0C1866.7 0 1813.3 0 1760 0C1706.7 0 1653.3 0 1600 0C1546.7 0 1493.3 0 1440 0C1386.7 0 1333.3 0 1280 0C1226.7 0 1173.3 0 1120 0C1066.7 0 1013.3 0 960 0C906.7 0 853.3 0 800 0C746.7 0 693.3 0 640 0C586.7 0 533.3 0 480 0C426.7 0 373.3 0 320 0C266.7 0 213.3 0 160 0C106.7 0 53.3 0 26.7 0L0 0Z" fill="#35d0fe"></path><path d="M0 436L26.7 431.3C53.3 426.7 106.7 417.3 160 411.2C213.3 405 266.7 402 320 393.7C373.3 385.3 426.7 371.7 480 377.5C533.3 383.3 586.7 408.7 640 423C693.3 437.3 746.7 440.7 800 431.8C853.3 423 906.7 402 960 391.8C1013.3 381.7 1066.7 382.3 1120 375.3C1173.3 368.3 1226.7 353.7 1280 363.3C1333.3 373 1386.7 407 1440 411.7C1493.3 416.3 1546.7 391.7 1600 381C1653.3 370.3 1706.7 373.7 1760 373C1813.3 372.3 1866.7 367.7 1893.3 365.3L1920 363L1920 0L1893.3 0C1866.7 0 1813.3 0 1760 0C1706.7 0 1653.3 0 1600 0C1546.7 0 1493.3 0 1440 0C1386.7 0 1333.3 0 1280 0C1226.7 0 1173.3 0 1120 0C1066.7 0 1013.3 0 960 0C906.7 0 853.3 0 800 0C746.7 0 693.3 0 640 0C586.7 0 533.3 0 480 0C426.7 0 373.3 0 320 0C266.7 0 213.3 0 160 0C106.7 0 53.3 0 26.7 0L0 0Z" fill="#04bffc"></path><path d="M0 294L26.7 293.8C53.3 293.7 106.7 293.3 160 306.3C213.3 319.3 266.7 345.7 320 347.5C373.3 349.3 426.7 326.7 480 327.3C533.3 328 586.7 352 640 350.2C693.3 348.3 746.7 320.7 800 324C853.3 327.3 906.7 361.7 960 359.5C1013.3 357.3 1066.7 318.7 1120 302.2C1173.3 285.7 1226.7 291.3 1280 304.3C1333.3 317.3 1386.7 337.7 1440 351.8C1493.3 366 1546.7 374 1600 363C1653.3 352 1706.7 322 1760 321.8C1813.3 321.7 1866.7 351.3 1893.3 366.2L1920 381L1920 0L1893.3 0C1866.7 0 1813.3 0 1760 0C1706.7 0 1653.3 0 1600 0C1546.7 0 1493.3 0 1440 0C1386.7 0 1333.3 0 1280 0C1226.7 0 1173.3 0 1120 0C1066.7 0 1013.3 0 960 0C906.7 0 853.3 0 800 0C746.7 0 693.3 0 640 0C586.7 0 533.3 0 480 0C426.7 0 373.3 0 320 0C266.7 0 213.3 0 160 0C106.7 0 53.3 0 26.7 0L0 0Z" fill="#00adf9"></path><path d="M0 274L26.7 272C53.3 270 106.7 266 160 275.5C213.3 285 266.7 308 320 318C373.3 328 426.7 325 480 324.8C533.3 324.7 586.7 327.3 640 326C693.3 324.7 746.7 319.3 800 307.5C853.3 295.7 906.7 277.3 960 265.2C1013.3 253 1066.7 247 1120 247.2C1173.3 247.3 1226.7 253.7 1280 257.3C1333.3 261 1386.7 262 1440 269.7C1493.3 277.3 1546.7 291.7 1600 287C1653.3 282.3 1706.7 258.7 1760 247C1813.3 235.3 1866.7 235.7 1893.3 235.8L1920 236L1920 0L1893.3 0C1866.7 0 1813.3 0 1760 0C1706.7 0 1653.3 0 1600 0C1546.7 0 1493.3 0 1440 0C1386.7 0 1333.3 0 1280 0C1226.7 0 1173.3 0 1120 0C1066.7 0 1013.3 0 960 0C906.7 0 853.3 0 800 0C746.7 0 693.3 0 640 0C586.7 0 533.3 0 480 0C426.7 0 373.3 0 320 0C266.7 0 213.3 0 160 0C106.7 0 53.3 0 26.7 0L0 0Z" fill="#009bf3"></path><path d="M0 207L26.7 211.2C53.3 215.3 106.7 223.7 160 221.3C213.3 219 266.7 206 320 199C373.3 192 426.7 191 480 197.7C533.3 204.3 586.7 218.7 640 215.7C693.3 212.7 746.7 192.3 800 199.2C853.3 206 906.7 240 960 257.7C1013.3 275.3 1066.7 276.7 1120 273.8C1173.3 271 1226.7 264 1280 258.2C1333.3 252.3 1386.7 247.7 1440 247C1493.3 246.3 1546.7 249.7 1600 246.2C1653.3 242.7 1706.7 232.3 1760 225.7C1813.3 219 1866.7 216 1893.3 214.5L1920 213L1920 0L1893.3 0C1866.7 0 1813.3 0 1760 0C1706.7 0 1653.3 0 1600 0C1546.7 0 1493.3 0 1440 0C1386.7 0 1333.3 0 1280 0C1226.7 0 1173.3 0 1120 0C1066.7 0 1013.3 0 960 0C906.7 0 853.3 0 800 0C746.7 0 693.3 0 640 0C586.7 0 533.3 0 480 0C426.7 0 373.3 0 320 0C266.7 0 213.3 0 160 0C106.7 0 53.3 0 26.7 0L0 0Z" fill="#0087eb"></path><path d="M0 134L26.7 135.7C53.3 137.3 106.7 140.7 160 147.3C213.3 154 266.7 164 320 168.8C373.3 173.7 426.7 173.3 480 169.2C533.3 165 586.7 157 640 156.5C693.3 156 746.7 163 800 161.3C853.3 159.7 906.7 149.3 960 156.2C1013.3 163 1066.7 187 1120 193.8C1173.3 200.7 1226.7 190.3 1280 191.8C1333.3 193.3 1386.7 206.7 1440 196.5C1493.3 186.3 1546.7 152.7 1600 137C1653.3 121.3 1706.7 123.7 1760 129.5C1813.3 135.3 1866.7 144.7 1893.3 149.3L1920 154L1920 0L1893.3 0C1866.7 0 1813.3 0 1760 0C1706.7 0 1653.3 0 1600 0C1546.7 0 1493.3 0 1440 0C1386.7 0 1333.3 0 1280 0C1226.7 0 1173.3 0 1120 0C1066.7 0 1013.3 0 960 0C906.7 0 853.3 0 800 0C746.7 0 693.3 0 640 0C586.7 0 533.3 0 480 0C426.7 0 373.3 0 320 0C266.7 0 213.3 0 160 0C106.7 0 53.3 0 26.7 0L0 0Z" fill="#0073e2"></path><path d="M0 140L26.7 135.5C53.3 131 106.7 122 160 121.2C213.3 120.3 266.7 127.7 320 135C373.3 142.3 426.7 149.7 480 139.5C533.3 129.3 586.7 101.7 640 87C693.3 72.3 746.7 70.7 800 79.7C853.3 88.7 906.7 108.3 960 107.8C1013.3 107.3 1066.7 86.7 1120 77.8C1173.3 69 1226.7 72 1280 75.7C1333.3 79.3 1386.7 83.7 1440 97.8C1493.3 112 1546.7 136 1600 142.5C1653.3 149 1706.7 138 1760 128.3C1813.3 118.7 1866.7 110.3 1893.3 106.2L1920 102L1920 0L1893.3 0C1866.7 0 1813.3 0 1760 0C1706.7 0 1653.3 0 1600 0C1546.7 0 1493.3 0 1440 0C1386.7 0 1333.3 0 1280 0C1226.7 0 1173.3 0 1120 0C1066.7 0 1013.3 0 960 0C906.7 0 853.3 0 800 0C746.7 0 693.3 0 640 0C586.7 0 533.3 0 480 0C426.7 0 373.3 0 320 0C266.7 0 213.3 0 160 0C106.7 0 53.3 0 26.7 0L0 0Z" fill="#005ed6"></path><path d="M0 74L26.7 66.3C53.3 58.7 106.7 43.3 160 46.5C213.3 49.7 266.7 71.3 320 78.2C373.3 85 426.7 77 480 64.5C533.3 52 586.7 35 640 37.7C693.3 40.3 746.7 62.7 800 74.7C853.3 86.7 906.7 88.3 960 88.7C1013.3 89 1066.7 88 1120 79.3C1173.3 70.7 1226.7 54.3 1280 53.5C1333.3 52.7 1386.7 67.3 1440 72.3C1493.3 77.3 1546.7 72.7 1600 72.2C1653.3 71.7 1706.7 75.3 1760 69.5C1813.3 63.7 1866.7 48.3 1893.3 40.7L1920 33L1920 0L1893.3 0C1866.7 0 1813.3 0 1760 0C1706.7 0 1653.3 0 1600 0C1546.7 0 1493.3 0 1440 0C1386.7 0 1333.3 0 1280 0C1226.7 0 1173.3 0 1120 0C1066.7 0 1013.3 0 960 0C906.7 0 853.3 0 800 0C746.7 0 693.3 0 640 0C586.7 0 533.3 0 480 0C426.7 0 373.3 0 320 0C266.7 0 213.3 0 160 0C106.7 0 53.3 0 26.7 0L0 0Z" fill="#2448c7"></path></svg>